<?xml version="1.0" encoding="iso-8859-1"?>
<!-- Uploaded to: SVG Repo, www.svgrepo.com, Generator: SVG Repo Mixer Tools -->
<svg height="800px" width="800px" version="1.1" id="Layer_1" xmlns="http://www.w3.org/2000/svg" xmlns:xlink="http://www.w3.org/1999/xlink" 
	 viewBox="0 0 512 512" xml:space="preserve">
<polygon style="fill:#FFD422;" points="295.949,321.308 315.701,376.546 210.725,376.546 230.477,321.308 "/>
<path style="opacity:0.2;fill:#891C00;enable-background:new    ;" d="M224.385,338.372c10.788,3.896,24.206,6.208,38.752,6.208
	c14.615,0,28.089-2.334,38.903-6.264l-6.082-17.007h-65.471L224.385,338.372z"/>
<path style="fill:#FFDA44;" d="M188.457,115.406c21.201-14.221,45.494-24.975,72.999-24.975
	c65.803,0,119.147,53.344,119.147,119.147s-53.344,119.147-119.147,119.147s-119.147-53.344-119.147-119.147
	c0-23.872,7.021-46.105,19.11-64.746C161.419,144.833,174.72,124.619,188.457,115.406z"/>
<path style="opacity:0.2;fill:#891C00;enable-background:new    ;" d="M326.211,109.387c11.966,18.577,18.912,40.694,18.912,64.435
	c0,65.803-53.344,119.147-119.147,119.147c-23.741,0-45.857-6.945-64.435-18.913c21.202,32.914,58.173,54.712,100.235,54.712
	c65.803,0,119.147-53.344,119.147-119.147C380.924,167.56,359.125,130.589,326.211,109.387z"/>
<g>
	<path style="fill:#CCA400;" d="M330.614,111.771l-8.767,17.486l-30.306,4.609l5.666,32.261l-27.824,7.667l-5.059,38.573
		l24.249,10.193l21.281-21.463l22.132,4.945l20.235,30.986l27.146-17.836l1.946,0.171c0.263-3.227,0.403-6.489,0.403-9.784
		C381.716,169.075,361.501,133.299,330.614,111.771z"/>
	<path style="fill:#CCA400;" d="M264.991,271.131l-12.618,27.324l18.433,29.353c18.748-1.176,36.322-6.679,51.726-15.535
		l2.267-38.838l-33.8-24.582L264.991,271.131z"/>
	<path style="fill:#CCA400;" d="M161.983,145.019c-12.089,18.641-19.11,40.873-19.11,64.746c0,51.222,32.325,94.89,77.686,111.729
		l2.948-1.112l2.634-54.648c0,0-41.15-15.694-42.139-16.024c-0.988-0.329,2.305-15.581,2.305-15.581l-5.597-16.131
		c0,0,43.455-14.156,43.455-15.144c0-0.987-9.218-40.164-9.218-40.164l7.243-20.082c0,0-21.548-28.621-23.915-32.862
		c-3.147,1.865-6.232,3.816-9.253,5.843C175.285,124.805,161.983,145.019,161.983,145.019z"/>
</g>
<polygon style="fill:#FFDA44;" points="236.826,95.209 261.456,40.503 288.587,96.221 "/>
<g>
	<path style="fill:#CCA400;" d="M142.874,462.974c0-10.908,8.843-19.75,19.75-19.75h201.196c10.908,0,19.75,8.843,19.75,19.75V512
		H142.874v-19.744V462.974z"/>
	<path style="fill:#CCA400;" d="M330.802,373.229H195.641c-2.322,0-4.204,1.882-4.204,4.204v37.45c0,4.904,3.975,8.879,8.879,8.879
		h1.865c11.076,0,20.054,8.978,20.054,20.054l0,0h81.972l0,0c0-11.076,8.978-20.054,20.054-20.054h1.865
		c4.904,0,8.879-3.975,8.879-8.879v-37.45C335.006,375.112,333.124,373.229,330.802,373.229z"/>
</g>
<path style="fill:#FFD422;" d="M191.436,391.165c0.009,0,0.018,0,0.026,0l64.049,0.211c4.354,0.015,7.871,3.556,7.857,7.908
	c-0.015,4.345-3.541,7.858-7.883,7.858c-0.009,0-0.018,0-0.026,0l-64.049-0.211L191.436,391.165z"/>
<g>
	<path style="fill:#CCA400;" d="M378.191,233.549c14.986,7.306,29.753,15.209,37.656,20.551
		c5.499,3.717,16.942,11.451,13.547,20.826c-2.338,6.454-9.577,7.808-16.016,7.808c-2.915,0-5.666-0.279-7.724-0.486
		c-9.49-0.958-22.511-3.462-38.7-7.446c-32.823-8.076-75.455-21.416-120.044-37.563c-44.59-16.147-85.879-33.197-116.261-48.011
		c-14.986-7.307-26.592-13.72-34.494-19.061c-5.499-3.717-16.942-11.451-13.547-20.826c3.117-8.607,14.464-8.474,26.262-7.041
		c10.92,1.323,32.179,5.291,50.646,10.083c4.214,1.093,0.384,4.529-0.709,8.743c-1.094,4.214-5.398,6.746-9.611,5.651
		c-21.8-5.657-35.098-8.013-43.077-8.92c6.688,4.399,18.36,11.075,38.609,20.641c29.075,13.735,67.27,29.332,107.55,43.919
		c40.279,14.587,79.605,27.062,110.734,35.129c21.671,5.616,34.909,7.961,42.865,8.867c-5.858-3.851-16.056-9.636-31.955-17.389
		c0,0,2.289-6.724,2.617-8.103C376.864,239.541,378.191,233.549,378.191,233.549z M414.647,273.465h0.011H414.647z"/>
	<path style="fill:#CCA400;" d="M261.456,0c12.048,0,21.816,9.768,21.816,21.816s-9.768,21.816-21.816,21.816
		c-12.048,0-22.11-9.771-21.816-21.816C239.829,14.105,243.9,0,261.456,0z"/>
</g>
<g>
	<path style="opacity:0.2;fill:#891C00;enable-background:new    ;" d="M275.002,4.734c0.587,1.973,0.912,4.057,0.912,6.22
		c0,12.048-9.768,21.816-21.816,21.816c-5.13,0-9.898-1.776-13.662-4.741c2.585,9.018,11.131,15.602,21.019,15.602
		c12.048,0,21.816-9.768,21.816-21.816C283.272,14.891,280.034,8.73,275.002,4.734z"/>
	<polygon style="opacity:0.2;fill:#891C00;enable-background:new    ;" points="143.02,472.635 143.02,492.256 143.02,512 
		383.716,512 383.716,472.635 	"/>
</g>
</svg>