<?xml version="1.0" encoding="iso-8859-1"?>
<!-- Uploaded to: SVG Repo, www.svgrepo.com, Generator: SVG Repo Mixer Tools -->
<svg height="800px" width="800px" version="1.1" id="Layer_1" xmlns="http://www.w3.org/2000/svg" xmlns:xlink="http://www.w3.org/1999/xlink" 
	 viewBox="0 0 512.001 512.001" xml:space="preserve">
<path style="fill:#363640;" d="M379.532,355.019H132.47c-38.186,0-69.143,30.956-69.143,69.143v87.839h385.348v-87.839
	C448.675,385.975,417.719,355.019,379.532,355.019z"/>
<polygon style="fill:#FFF7E6;" points="219.568,512 292.434,512 355.443,355.019 156.56,355.019 "/>
<g>
	<path style="fill:#2B2B33;" d="M123.64,512v-96.738c0-4.489,3.64-8.129,8.129-8.129c4.489,0,8.129,3.64,8.129,8.129V512H123.64z"/>
	<path style="fill:#2B2B33;" d="M372.105,512v-96.738c0-4.489,3.64-8.129,8.129-8.129s8.129,3.64,8.129,8.129V512H372.105z"/>
	<circle style="fill:#2B2B33;" cx="253.992" cy="441.454" r="8.829"/>
	<circle style="fill:#2B2B33;" cx="253.992" cy="481.817" r="8.829"/>
</g>
<path style="fill:#5A4146;" d="M103.141,203.944V152.86C103.141,68.572,171.713,0,256.001,0c84.287,0,152.86,68.572,152.86,152.859
	v51.083H103.141V203.944z"/>
<g>
	<path style="fill:#F2B09D;" d="M388.041,181.378h-26.052v86.906l0,0c30.149,0,54.589-24.44,54.589-54.589v-3.779
		C416.578,194.154,403.802,181.378,388.041,181.378z"/>
	<path style="fill:#F2B09D;" d="M123.962,181.378h26.052v86.906l0,0c-30.149,0-54.589-24.44-54.589-54.589v-3.779
		C95.424,194.154,108.2,181.378,123.962,181.378z"/>
</g>
<path style="opacity:0.1;enable-background:new    ;" d="M366.508,355.018H145.495c27.568,29.678,66.903,48.28,110.508,48.28
	C299.606,403.299,338.941,384.696,366.508,355.018z"/>
<path style="fill:#FFBBA8;" d="M256.001,87.573c0,0-5.488-3.422-14.901-7.356c-51.393-21.485-108.439,15.992-108.856,71.695
	c-0.002,0.315-0.003,0.632-0.003,0.948v99.582c0,68.351,55.41,123.76,123.76,123.76l0,0c68.351,0,123.76-55.41,123.76-123.76V152.86
	c0-0.316-0.001-0.633-0.003-0.948c-0.418-55.703-57.463-93.18-108.856-71.695C261.489,84.152,256.001,87.573,256.001,87.573z"/>
<path style="fill:#5A4146;" d="M285.988,183.281c-2.018,0-4.04-0.747-5.614-2.251c-3.246-3.101-3.363-8.247-0.262-11.493
	c7.333-7.677,20.296-12.259,34.674-12.259c14.295,0,27.218,4.541,34.568,12.149c3.119,3.229,3.03,8.375-0.198,11.494
	c-3.229,3.119-8.374,3.03-11.494-0.197c-3.204-3.317-11.117-7.188-22.876-7.188c-11.059,0-19.479,3.632-22.919,7.233
	C290.27,182.439,288.131,183.281,285.988,183.281z"/>
<g>
	<circle style="fill:#2B2B33;" cx="314.753" cy="202.031" r="11.64"/>
	<circle style="fill:#2B2B33;" cx="197.252" cy="202.031" r="11.64"/>
</g>
<path style="fill:#FFF7E6;" d="M225.669,105.987h-71.47c-16.752,0-30.332,13.58-30.332,30.332v163.316
	c0,22.327,18.1,40.428,40.428,40.428l0,0c22.327,0,40.428-18.1,40.428-40.428v-1.271c0-14.161,11.479-25.64,25.64-25.64
	s25.64-11.479,25.64-25.64V136.319C256.001,119.567,242.421,105.987,225.669,105.987z M197.254,230.09
	c-20.675,0-37.435-12.563-37.435-28.06s16.761-28.06,37.435-28.06s37.435,12.563,37.435,28.06S217.929,230.09,197.254,230.09z"/>
<path style="fill:#5A4146;" d="M232.846,319.335c-2.311,0-4.605-0.98-6.213-2.883c-2.897-3.429-2.467-8.558,0.962-11.455
	c7.022-5.934,18.74-9.476,31.343-9.476c12.601,0,24.317,3.542,31.341,9.474c3.429,2.897,3.862,8.026,0.965,11.455
	c-2.897,3.429-8.026,3.862-11.455,0.965c-3.078-2.6-10.385-5.636-20.849-5.636c-10.466,0-17.772,3.037-20.85,5.637
	C236.561,318.704,234.698,319.335,232.846,319.335z"/>
<g>
	<path style="fill:#CC5051;" d="M201.537,399.311c2.496,23.11,43.363-9.562,43.363-9.562v-15.531c0,0-40.867-32.672-43.363-9.562
		V399.311z"/>
	<path style="fill:#CC5051;" d="M310.465,399.311c-2.496,23.11-43.363-9.562-43.363-9.562v-15.531c0,0,40.867-32.672,43.363-9.562
		V399.311z"/>
</g>
<path style="fill:#FF6465;" d="M261.312,364.325H250.69c-9.753,0-17.659,7.907-17.659,17.659l0,0
	c0,9.753,7.907,17.659,17.659,17.659h10.622c9.753,0,17.659-7.907,17.659-17.659l0,0
	C278.971,372.23,271.066,364.325,261.312,364.325z"/>
</svg>